<svg width="22" height="22" viewBox="0 0 22 22" fill="none" xmlns="http://www.w3.org/2000/svg">
<path fill-rule="evenodd" clip-rule="evenodd" d="M15.5749 13.0979C15.6589 12.4059 15.7219 11.7129 15.7219 10.9989C15.7219 10.2849 15.6589 9.59286 15.5749 8.90086H19.1219C19.2899 9.57186 19.3949 10.2749 19.3949 10.9989C19.3949 11.7229 19.2899 12.4269 19.1219 13.0979H15.5749ZM13.7179 18.9319C14.3469 17.7679 14.8299 16.5089 15.1659 15.1969H18.2619C17.2539 16.9279 15.6489 18.2709 13.7179 18.9319ZM13.4549 13.0979H8.54386C8.44986 12.4059 8.37586 11.7129 8.37586 10.9989C8.37586 10.2849 8.44986 9.58286 8.54386 8.90086H13.4549C13.5499 9.58286 13.6229 10.2849 13.6229 10.9989C13.6229 11.7129 13.5499 12.4059 13.4549 13.0979ZM10.9999 19.3519C10.1289 18.0929 9.44686 16.6979 8.99486 15.1969H13.0039C12.5529 16.6979 11.8709 18.0929 10.9999 19.3519ZM6.83386 6.80186H3.73786C4.74486 5.05986 6.35086 3.72686 8.28186 3.06586C7.65186 4.23086 7.16986 5.48986 6.83386 6.80186ZM3.73786 15.1969H6.83386C7.16986 16.5089 7.65186 17.7679 8.28186 18.9319C6.35086 18.2709 4.74486 16.9389 3.73786 15.1969ZM2.87786 13.0979C2.70986 12.4269 2.60486 11.7229 2.60486 10.9989C2.60486 10.2749 2.70986 9.57186 2.87786 8.90086H6.42486C6.34086 9.59286 6.27786 10.2849 6.27786 10.9989C6.27786 11.7129 6.34086 12.4059 6.42486 13.0979H2.87786ZM10.9999 2.64586C11.8709 3.90586 12.5529 5.30086 13.0039 6.80186H8.99486C9.44686 5.30086 10.1289 3.90586 10.9999 2.64586ZM18.2619 6.80186H15.1659C14.8299 5.48986 14.3469 4.23086 13.7179 3.06586C15.6489 3.72686 17.2539 5.06986 18.2619 6.80186ZM10.9889 0.505859C5.19686 0.505859 0.505859 5.20686 0.505859 10.9989C0.505859 16.7919 5.19686 21.4929 10.9889 21.4929C16.7919 21.4929 21.4929 16.7919 21.4929 10.9989C21.4929 5.20686 16.7919 0.505859 10.9889 0.505859Z" fill="white"/>
</svg>
