<svg width="22" height="21" viewBox="0 0 22 21" fill="none" xmlns="http://www.w3.org/2000/svg">
<path d="M19.9263 1.06965C21.3283 2.35465 21.3643 4.53365 20.0333 5.86365L19.5903 6.30665C19.4033 6.49365 19.1003 6.49365 18.9133 6.30665L14.8993 2.29265C14.7123 2.10565 14.7123 1.80265 14.8993 1.61565L15.2693 1.24665C16.5363 -0.0213541 18.6043 -0.140354 19.9263 1.06965Z" fill="white"/>
<path d="M3.57154 12.0785C2.77754 12.5335 1.77054 12.3475 1.19054 11.6395C0.375544 10.6455 0.779545 9.14455 1.98254 8.69355L12.9965 3.51755L17.6885 8.20855V8.20955L17.6875 8.21055L12.5115 19.2245C12.0605 20.4275 10.5605 20.8305 9.56654 20.0165C8.85854 19.4365 8.67254 18.4305 9.12754 17.6355L14.0245 10.2355C14.1215 10.0675 14.0925 9.85355 13.9545 9.71555C13.7725 9.53355 13.4765 9.55255 13.3165 9.74455L7.63054 16.3595C6.88654 17.2525 5.53654 17.3135 4.71454 16.4915C3.89254 15.6695 3.95454 14.3195 4.84654 13.5755L11.6315 8.05855C11.8285 7.89455 11.8385 7.59755 11.6605 7.42055C11.5225 7.28255 11.3095 7.25455 11.1395 7.35055L3.57154 12.0785Z" fill="white"/>
</svg>
