<svg width="24" height="17" viewBox="0 0 24 17" fill="none" xmlns="http://www.w3.org/2000/svg">
<path fill-rule="evenodd" clip-rule="evenodd" d="M21.391 14.7663H2.61C2.582 14.7663 2.558 14.7663 2.54 14.6973C2.517 14.6053 2.561 14.5803 2.585 14.5673L12.024 9.41926L21.414 14.5673C21.439 14.5803 21.483 14.6053 21.459 14.6973C21.442 14.7663 21.417 14.7663 21.391 14.7663ZM22.313 12.9303L13.492 8.09426C14.12 7.82226 14.672 7.38926 15.075 6.82226C15.682 5.96826 15.89 4.92826 15.656 3.87226C15.269 2.32826 14.095 1.17726 12.655 0.936265C11.521 0.758265 10.381 1.07426 9.526 1.80626C8.693 2.51826 8.215 3.55726 8.215 4.65926C8.215 5.17526 8.633 5.59326 9.149 5.59326C9.664 5.59326 10.082 5.17526 10.082 4.65926C10.082 4.09626 10.316 3.58726 10.739 3.22526C11.178 2.84926 11.772 2.68926 12.356 2.77926C13.054 2.89626 13.638 3.50326 13.838 4.30226C13.952 4.81126 13.85 5.32226 13.553 5.74126C13.245 6.17326 12.771 6.45826 12.244 6.52926C11.623 6.57026 11.154 7.09526 11.121 7.76526C11.107 7.77226 11.092 7.77426 11.078 7.78226L1.687 12.9303H1.686C0.885997 13.3703 0.501997 14.2663 0.731997 15.1613C0.956997 16.0413 1.712 16.6333 2.61 16.6333H21.391C22.287 16.6333 23.042 16.0413 23.268 15.1613C23.497 14.2663 23.114 13.3703 22.313 12.9303Z" fill="white"/>
</svg>
