<svg width="22" height="18" viewBox="0 0 22 18" fill="none" xmlns="http://www.w3.org/2000/svg">
<path fill-rule="evenodd" clip-rule="evenodd" d="M1.85888 0.388672H20.1319C20.6729 0.388672 21.1109 0.825672 21.1109 1.36767V13.8597C21.1109 14.4007 20.6729 14.8387 20.1319 14.8387H1.85888C1.31788 14.8387 0.879883 14.4007 0.879883 13.8597V1.36767C0.879883 0.825672 1.31788 0.388672 1.85888 0.388672ZM15.4779 11.0827L17.7119 5.58667C17.9049 5.11167 17.6759 4.56767 17.2009 4.37467C16.9709 4.28067 16.7169 4.28167 16.4879 4.37867C16.2589 4.47567 16.0819 4.65567 15.9879 4.88567L14.6099 8.27667L13.2099 4.88067C13.0139 4.40767 12.4689 4.18167 11.9939 4.37567C11.5199 4.57167 11.2939 5.11667 11.4889 5.59067L13.7549 11.0867C13.8999 11.4367 14.2369 11.6617 14.6179 11.6617C14.9979 11.6607 15.3349 11.4337 15.4779 11.0827ZM8.31388 6.16667H9.61588C10.1289 6.16667 10.5459 5.74967 10.5459 5.23567C10.5459 4.72367 10.1289 4.30567 9.61588 4.30567H5.15088C4.63788 4.30567 4.21988 4.72367 4.21988 5.23567C4.21988 5.74967 4.63788 6.16667 5.15088 6.16667H6.45288V10.7317C6.45288 11.2447 6.87088 11.6617 7.38288 11.6617C7.89688 11.6617 8.31388 11.2447 8.31388 10.7317V6.16667Z" fill="white"/>
<path d="M5.87368 15.8308H16.1167C16.6577 15.8308 17.0957 16.2688 17.0957 16.8098C17.0957 17.3508 16.6577 17.7888 16.1167 17.7888H5.87368C5.33268 17.7888 4.89468 17.3508 4.89468 16.8098C4.89468 16.2688 5.33268 15.8308 5.87368 15.8308Z" fill="white"/>
</svg>
