<svg width="18" height="20" viewBox="0 0 18 20" fill="none" xmlns="http://www.w3.org/2000/svg">
<path fill-rule="evenodd" clip-rule="evenodd" d="M9.52231 0.922363C10.8873 0.922363 11.9973 2.03336 11.9973 3.39836V18.2514C11.9973 18.7084 11.6283 19.0774 11.1723 19.0774H1.27031C0.814312 19.0774 0.445312 18.7084 0.445312 18.2514V3.39836C0.445312 2.03336 1.55531 0.922363 2.92031 0.922363H9.52231ZM2.09531 8.34936H10.3473V3.39836C10.3473 2.94136 9.97831 2.57336 9.52231 2.57336H2.92031C2.46431 2.57336 2.09531 2.94136 2.09531 3.39836V8.34936Z" fill="white"/>
<path d="M16.6189 2.32546L17.2789 2.82046C17.4609 2.95746 17.4979 3.21646 17.3619 3.39846L15.3249 6.11246L16.8189 6.61046C17.0349 6.68246 17.1519 6.91646 17.0799 7.13246L16.8189 7.91546C16.7459 8.13246 16.5129 8.24846 16.2969 8.17646L15.8419 8.02546C15.5739 7.93646 15.2989 8.13446 15.2989 8.41646V14.1255C15.2989 14.3855 15.1759 14.6305 14.9679 14.7855L12.8229 16.3945V14.3315L13.3179 13.9605C13.5259 13.8045 13.6479 13.5605 13.6479 13.3005V6.00946C13.6479 5.74246 13.7349 5.48346 13.8949 5.26946L16.0409 2.40746C16.1779 2.22546 16.4359 2.18846 16.6189 2.32546Z" fill="white"/>
</svg>
