<svg width="20" height="18" viewBox="0 0 20 18" fill="none" xmlns="http://www.w3.org/2000/svg">
<path fill-rule="evenodd" clip-rule="evenodd" d="M13.0869 11.7715H11.2039V13.6545C11.2039 14.3135 10.6639 14.8545 10.0039 14.8545C9.34493 14.8545 8.80493 14.3135 8.80493 13.6545V11.7715H6.92193C6.26193 11.7715 5.72293 11.2315 5.72293 10.5715C5.72293 9.91252 6.26193 9.37252 6.92193 9.37252H8.80493V7.48952C8.80493 6.82952 9.34493 6.29052 10.0039 6.29052C10.6639 6.29052 11.2039 6.82952 11.2039 7.48952V9.37252H13.0869C13.7469 9.37252 14.2869 9.91252 14.2869 10.5715C14.2869 11.2315 13.7469 11.7715 13.0869 11.7715ZM7.35793 2.92952C7.35793 2.35452 7.82393 1.88852 8.39993 1.88852H11.5999C12.1749 1.88852 12.6409 2.35452 12.6409 2.92952V3.47552H7.35793V2.92952ZM17.2889 3.47552H14.1649V2.93752C14.1649 1.69452 13.1569 0.686523 11.9139 0.686523H8.08593C6.84193 0.686523 5.83493 1.69452 5.83493 2.93752V3.47552H2.71093C1.56093 3.47552 0.62793 4.40752 0.62793 5.55752V15.2295C0.62793 16.3795 1.56093 17.3115 2.71093 17.3115H17.2889C18.4389 17.3115 19.3709 16.3795 19.3709 15.2295V5.55752C19.3709 4.40752 18.4389 3.47552 17.2889 3.47552Z" fill="white"/>
</svg>
