<svg width="22" height="19" viewBox="0 0 22 19" fill="none" xmlns="http://www.w3.org/2000/svg">
<path d="M17.8374 6.73853H20.3524C20.9264 6.73853 21.3914 7.20353 21.3914 7.77753C21.3914 8.35153 20.9264 8.81653 20.3524 8.81653H1.64838C1.07438 8.81653 0.609375 8.35153 0.609375 7.77753C0.609375 7.20353 1.07438 6.73853 1.64838 6.73853H4.16337L7.50437 0.890526C7.78937 0.392526 8.42437 0.218526 8.92237 0.503526C9.42037 0.788526 9.59338 1.42253 9.30937 1.92053L6.55638 6.73853H15.4444L12.6924 1.92153C12.4074 1.42353 12.5804 0.788526 13.0794 0.503526C13.5774 0.218526 14.2114 0.391526 14.4964 0.889526L17.8374 6.73853Z" fill="white"/>
<path d="M3.75077 18.1257L2.08477 10.6247H19.9158L18.2508 18.1247C18.1448 18.5997 17.7228 18.9377 17.2348 18.9377H4.76577C4.27778 18.9377 3.85577 18.6007 3.75077 18.1257Z" fill="white"/>
</svg>
