<svg width="20" height="18" viewBox="0 0 20 18" fill="none" xmlns="http://www.w3.org/2000/svg">
<path fill-rule="evenodd" clip-rule="evenodd" d="M2.96013 6.27549L4.06486 3.04562C4.18881 2.68663 4.52598 2.44466 4.90579 2.44466H15.0942C15.474 2.44466 15.8112 2.68663 15.9351 3.04562L17.0399 6.27549C17.1638 6.63546 16.8951 7.01131 16.5143 7.01131H3.48572C3.10492 7.01131 2.83618 6.63546 2.96013 6.27549ZM16.4369 12.6916C15.2608 12.9127 14.2543 11.9062 14.4754 10.7301C14.5974 10.0766 15.1319 9.54205 15.7854 9.42007C16.9615 9.19893 17.9681 10.2055 17.7469 11.3816C17.6249 12.0351 17.0904 12.5696 16.4369 12.6916ZM4.2146 12.6916C3.03848 12.9127 2.03193 11.9062 2.25307 10.7301C2.37604 10.0766 2.91055 9.54205 3.56307 9.42007C4.73919 9.19893 5.74574 10.2055 5.52459 11.3816C5.40262 12.0351 4.86811 12.5696 4.2146 12.6916ZM17.6894 1.62257C17.4613 0.967077 16.8386 0.5 16.1117 0.5H3.88933C3.16144 0.5 2.53868 0.967077 2.31158 1.62257L0.307418 7.3931C0.104125 7.97917 0 8.595 0 9.2148V16.2011C0 16.812 0.500793 17.3118 1.11166 17.3118H2.22233C2.83915 17.3118 3.333 16.812 3.333 16.2011V15.0894H16.667V16.2011C16.667 16.812 17.1668 17.3118 17.7777 17.3118H18.8883C19.5061 17.3118 20 16.812 20 16.2011V9.2148C20 8.595 19.8959 7.97917 19.6926 7.3931L17.6894 1.62257Z" fill="white"/>
</svg>
