<svg width="16" height="20" viewBox="0 0 16 20" fill="none" xmlns="http://www.w3.org/2000/svg">
<path fill-rule="evenodd" clip-rule="evenodd" d="M8 16C7.44772 16 7 15.5523 7 15V9C7 8.44772 7.44772 8 8 8C8.55228 8 9 8.44772 9 9V15C9 15.5523 8.55228 16 8 16ZM12 16C11.4477 16 11 15.5523 11 15V9C11 8.44772 11.4477 8 12 8C12.5523 8 13 8.44772 13 9V15C13 15.5523 12.5523 16 12 16ZM4 16C3.44772 16 3 15.5523 3 15V9C3 8.44772 3.44772 8 4 8C4.55228 8 5 8.44772 5 9V15C5 15.5523 4.55228 16 4 16ZM1 6.48984V17.4872C1 18.8754 2.09125 20 3.4369 20H12.5631C13.9088 20 15 18.8754 15 17.4872V6.48984C15 5.66786 14.3526 5 13.5558 5H2.44417C1.64739 5 1 5.66786 1 6.48984ZM9.3405 0H6.8255C5.9905 0 5.3125 0.734164 5.3125 1.63833C5.3125 1.83866 5.1635 2 4.9795 2H1C0.447716 2 0 2.44772 0 3C0 3.55228 0.447715 4 1 4H15C15.5523 4 16 3.55228 16 3C16 2.44772 15.5523 2 15 2H11.1875C11.0035 2 10.8545 1.83866 10.8545 1.63833C10.8545 0.734164 10.1765 0 9.3405 0Z" fill="white"/>
</svg>
