<svg width="40" height="40" viewBox="0 0 40 40" fill="none" xmlns="http://www.w3.org/2000/svg">
<circle cx="20" cy="20" r="20" fill="#C7C9CC"/>
<path fill-rule="evenodd" clip-rule="evenodd" d="M20 26C19.4477 26 19 25.5523 19 25V19C19 18.4477 19.4477 18 20 18C20.5523 18 21 18.4477 21 19V25C21 25.5523 20.5523 26 20 26ZM24 26C23.4477 26 23 25.5523 23 25V19C23 18.4477 23.4477 18 24 18C24.5523 18 25 18.4477 25 19V25C25 25.5523 24.5523 26 24 26ZM16 26C15.4477 26 15 25.5523 15 25V19C15 18.4477 15.4477 18 16 18C16.5523 18 17 18.4477 17 19V25C17 25.5523 16.5523 26 16 26ZM13 16.4898V27.4872C13 28.8754 14.0912 30 15.4369 30H24.5631C25.9088 30 27 28.8754 27 27.4872V16.4898C27 15.6679 26.3526 15 25.5558 15H14.4442C13.6474 15 13 15.6679 13 16.4898ZM21.3405 10H18.8255C17.9905 10 17.3125 10.7342 17.3125 11.6383C17.3125 11.8387 17.1635 12 16.9795 12H13C12.4477 12 12 12.4477 12 13C12 13.5523 12.4477 14 13 14H27C27.5523 14 28 13.5523 28 13C28 12.4477 27.5523 12 27 12H23.1875C23.0035 12 22.8545 11.8387 22.8545 11.6383C22.8545 10.7342 22.1765 10 21.3405 10Z" fill="white"/>
</svg>
