<svg width="20" height="19" viewBox="0 0 20 19" fill="none" xmlns="http://www.w3.org/2000/svg">
<path d="M15.9649 4.04385C16.2949 2.22785 15.4789 0.557852 14.1419 0.314852C12.8049 0.071852 11.4529 1.34685 11.1229 3.16285C10.7919 4.97985 11.6089 6.64885 12.9459 6.89185C14.2829 7.13485 15.6349 5.85985 15.9649 4.04385Z" fill="white"/>
<path d="M18.7059 6.34665C19.7849 6.72765 20.2239 8.26965 19.6859 9.79065C19.1489 11.3127 17.8379 12.2367 16.7599 11.8557C15.6809 11.4747 15.2419 9.93265 15.7799 8.41065C16.3169 6.88965 17.6269 5.96565 18.7059 6.34665Z" fill="white"/>
<path d="M7.01317 10.6042C6.63222 11.1385 6.23806 11.6913 5.78967 12.1691C5.50338 12.4739 5.2007 12.7472 4.90326 13.0158C4.36954 13.4976 3.85268 13.9642 3.47767 14.5711C2.25367 16.5511 3.17167 18.4281 5.24167 18.4671C6.23797 18.3857 7.00717 18.2174 7.70188 18.0655C8.44219 17.9035 9.09789 17.7601 9.85367 17.7601C10.593 17.7601 11.4832 17.9399 12.3657 18.1181C13.2317 18.2931 14.0903 18.4666 14.7917 18.4671C17.1237 18.6021 17.2077 15.7051 16.5447 14.8181C16.1913 14.1662 15.7885 13.7886 15.3377 13.3661C14.9581 13.0102 14.5444 12.6224 14.0977 12.0121C13.4532 11.1304 13.1613 10.629 12.8677 10.1245C12.7143 9.86107 12.5605 9.59676 12.3557 9.27705C11.3697 7.86905 9.36967 7.92105 8.16867 9.13905C7.76881 9.54443 7.39771 10.0649 7.01317 10.6042Z" fill="white"/>
<path d="M6.04567 0.522352C7.38867 0.273352 8.74967 1.54135 9.08467 3.35235C9.41967 5.16435 8.60267 6.83435 7.25867 7.08235C5.91567 7.33135 4.55467 6.06435 4.21967 4.25235C3.88467 2.44035 4.70267 0.771352 6.04567 0.522352Z" fill="white"/>
<path d="M0.501773 9.87335C-0.0692265 8.37735 0.340773 6.83135 1.41677 6.42035C2.49277 6.00935 3.82877 6.88935 4.39877 8.38535C4.97077 9.88135 4.56077 11.4274 3.48377 11.8384C2.40777 12.2494 1.07277 11.3694 0.501773 9.87335Z" fill="white"/>
</svg>
