<svg width="18" height="19" viewBox="0 0 18 19" fill="none" xmlns="http://www.w3.org/2000/svg">
<path d="M8.44234 1.31551H9.76633C10.1243 1.31551 10.4143 1.02551 10.4143 0.668508C10.4143 0.310508 10.1243 0.0205078 9.76633 0.0205078H8.44234C8.08434 0.0205078 7.79433 0.310508 7.79433 0.668508C7.79433 1.02551 8.08434 1.31551 8.44234 1.31551Z" fill="white"/>
<path fill-rule="evenodd" clip-rule="evenodd" d="M0.903435 9.79881V11.6528C0.903435 11.9438 1.17743 12.1578 1.45943 12.0858C2.75643 11.7528 5.07243 11.1678 8.99844 11.1678C12.9254 11.1678 15.2414 11.7528 16.5374 12.0858C16.8204 12.1578 17.0944 11.9438 17.0944 11.6528V9.79881C17.0944 -0.936193 0.903435 -0.951192 0.903435 9.79881ZM5.84743 5.30081H12.1494C12.3964 5.30081 12.5974 5.50081 12.5974 5.74781V8.45181C12.5974 8.69881 12.3964 8.89881 12.1494 8.89881H5.84743C5.60044 8.89881 5.40043 8.69881 5.40043 8.45181V5.74781C5.40043 5.50081 5.60044 5.30081 5.84743 5.30081Z" fill="white"/>
<path d="M17.968 17.6768L17.068 14.0788C17.005 13.8238 16.833 13.6098 16.598 13.4918C16.394 13.3898 14.45 12.4968 8.99903 12.4968C3.54803 12.4968 1.60403 13.3898 1.40003 13.4918C1.16503 13.6088 0.994035 13.8238 0.930035 14.0788L0.0310349 17.6768C-0.0599651 18.0348 0.0830349 18.4118 0.384035 18.6258C0.686035 18.8418 1.09003 18.8478 1.40003 18.6458C1.42303 18.6288 3.98703 16.9948 8.99903 16.9948C14.002 16.9948 16.565 18.6228 16.599 18.6448C16.75 18.7448 16.923 18.7938 17.094 18.7938C17.275 18.7938 17.457 18.7398 17.613 18.6308C17.917 18.4158 18.057 18.0378 17.968 17.6768Z" fill="white"/>
</svg>
