<svg width="20" height="22" viewBox="0 0 20 22" fill="none" xmlns="http://www.w3.org/2000/svg">
<path d="M10 4.5C9.6 4.5 9.2 4.2 9.2 3.7V0.7C9.2 0.3 9.6 0 10 0C10.4 0 10.8 0.3 10.8 0.8V3.8C10.8 4.2 10.4 4.5 10 4.5Z" fill="white"/>
<path d="M6 5.50001C5.7 5.50001 5.5 5.30001 5.3 5.10001L4.3 3.10001C4.1 2.70001 4.3 2.30001 4.6 2.10001C5 1.90001 5.4 2.10001 5.6 2.40001L6.6 4.40001C6.8 4.80001 6.6 5.20001 6.3 5.40001C6.2 5.50001 6.1 5.50001 6 5.50001Z" fill="white"/>
<path d="M13.7 5.4C13.8 5.5 13.9 5.5 14 5.5C14.3 5.5 14.5 5.3 14.7 5.1L15.7 3.1C15.9 2.7 15.8 2.3 15.4 2.1C15 1.9 14.6 2 14.4 2.4L13.4 4.4C13.2 4.8 13.3 5.2 13.7 5.4Z" fill="white"/>
<path d="M18 8H2C0.9 8 0 8.9 0 10V11H20V10C20 8.9 19.1 8 18 8Z" fill="white"/>
<path fill-rule="evenodd" clip-rule="evenodd" d="M2 22C0.9 22 0 21.1 0 20V13.5H20V20C20 21.1 19.1 22 18 22H2ZM7.3 16H2.8C2.3 16 2 16.3 2 16.8C2 17.3 2.4 17.6 2.8 17.6H7.3C7.8 17.6 8.1 17.3 8.1 16.8C8.1 16.3 7.7 16 7.3 16ZM11.3 18.5H2.8C2.3 18.5 2 18.7 2 19.2C2 19.7 2.3 20 2.8 20H11.2C11.7 20 12.1 19.8 12.1 19.3C12.1 18.8 11.7 18.5 11.3 18.5Z" fill="white"/>
</svg>
