<svg width="15" height="19" viewBox="0 0 15 19" fill="none" xmlns="http://www.w3.org/2000/svg">
<path d="M5.79289 0.76175C5.79289 0.53075 5.97889 0.34375 6.20989 0.34375C6.40989 0.34375 6.58189 0.48575 6.61889 0.68275C6.80389 1.64775 7.31489 4.42675 7.31489 5.67375C7.31489 8.71875 5.03089 9.47975 5.03089 9.47975V17.4737C5.03089 18.1047 4.51989 18.6157 3.88889 18.6157C3.25789 18.6157 2.74689 18.1047 2.74689 17.4737V9.47975C2.74689 9.47975 0.462891 8.71875 0.462891 5.67375C0.462891 4.42675 0.972891 1.64775 1.15789 0.68275C1.19589 0.48575 1.36789 0.34375 1.56789 0.34375C1.79889 0.34375 1.98589 0.53075 1.98589 0.76175V5.18175C1.98589 5.45375 2.20489 5.67375 2.47689 5.67375C2.72689 5.67375 2.93689 5.48475 2.96489 5.23575L3.46689 0.71575C3.48989 0.50375 3.66889 0.34375 3.88189 0.34375H3.89589C4.10789 0.34375 4.28789 0.50375 4.31089 0.71575L4.81289 5.23575C4.84089 5.48475 5.05089 5.67375 5.30089 5.67375C5.57289 5.67375 5.79289 5.45375 5.79289 5.18175V0.76175Z" fill="white"/>
<path d="M12.7747 0.70475C12.9097 0.49275 13.1357 0.34375 13.4057 0.34375C13.8257 0.34375 14.1667 0.68475 14.1667 1.10575V17.4737C14.1667 18.1047 13.6557 18.6157 13.0257 18.6157C12.3937 18.6157 11.8837 18.1047 11.8837 17.4737V11.8077L10.8717 10.8258C10.5427 10.4488 10.3607 9.96475 10.3607 9.46375V7.95675C10.3607 4.19275 12.7637 0.69775 12.7637 0.69775L12.7747 0.70475Z" fill="white"/>
</svg>
