<svg width="18" height="20" viewBox="0 0 18 20" fill="none" xmlns="http://www.w3.org/2000/svg">
<path fill-rule="evenodd" clip-rule="evenodd" d="M14.2208 17.7391C16.0928 17.7391 17.6168 16.2161 17.6168 14.3431V1.8121C17.6168 1.4021 17.4198 1.0091 17.0898 0.763103C16.7618 0.519103 16.3298 0.443103 15.9338 0.559103L5.49181 3.6921C4.94281 3.8561 4.55981 4.3721 4.55981 4.9451V13.1301L4.21081 13.0791C4.06181 13.0571 3.91981 13.0361 3.77881 13.0361C1.90581 13.0361 0.382812 14.5601 0.382812 16.4321C0.382812 18.3041 1.90581 19.8271 3.77881 19.8271C5.65081 19.8271 7.17381 18.3041 7.17381 16.4321V5.9161L15.0028 3.5681V11.0421L14.6528 10.9901C14.5038 10.9681 14.3628 10.9481 14.2208 10.9481C12.3478 10.9481 10.8248 12.4711 10.8248 14.3431C10.8248 16.2161 12.3478 17.7391 14.2208 17.7391Z" fill="white"/>
</svg>
