<svg width="20" height="19" viewBox="0 0 20 19" fill="none" xmlns="http://www.w3.org/2000/svg">
<path fill-rule="evenodd" clip-rule="evenodd" d="M19.4914 9.13148L10.6994 0.338484C10.3174 -0.0425156 9.6994 -0.0425156 9.3174 0.338484L0.525398 9.13148C0.245398 9.41048 0.161398 9.83048 0.312398 10.1965C0.463398 10.5615 0.821398 10.7985 1.2154 10.7985H2.6694C2.9454 10.7985 3.1694 11.0235 3.1694 11.2985V18.1145C3.1694 18.3905 3.3934 18.6145 3.6694 18.6145H7.5544C7.8304 18.6145 8.0544 18.3905 8.0544 18.1145V14.2295C8.0544 13.9535 8.2784 13.7295 8.5544 13.7295H11.4624C11.7384 13.7295 11.9624 13.9535 11.9624 14.2295V18.1145C11.9624 18.3905 12.1854 18.6145 12.4624 18.6145H16.3464C16.6234 18.6145 16.8464 18.3905 16.8464 18.1145V11.2985C16.8464 11.0235 17.0714 10.7985 17.3464 10.7985H18.8014C19.1954 10.7985 19.5534 10.5615 19.7034 10.1965C19.8554 9.83048 19.7714 9.41048 19.4914 9.13148Z" fill="white"/>
</svg>
