<svg width="22" height="17" viewBox="0 0 22 17" fill="none" xmlns="http://www.w3.org/2000/svg">
<path fill-rule="evenodd" clip-rule="evenodd" d="M1.67467 3.99765H20.3247C20.8977 3.99765 21.3617 4.46165 21.3617 5.03365V15.3946C21.3617 15.9666 20.8977 16.4306 20.3247 16.4306H1.67467C1.10267 16.4306 0.638672 15.9666 0.638672 15.3946V5.03365C0.638672 4.46165 1.10267 3.99765 1.67467 3.99765ZM2.71067 0.889648H19.2887C19.8617 0.889648 20.3247 1.35265 20.3247 1.92565V2.96165H1.67467V1.92565C1.67467 1.35265 2.13867 0.889648 2.71067 0.889648ZM10.9997 13.3226C12.7167 13.3226 14.1087 11.9306 14.1087 10.2146C14.1087 8.49765 12.7167 7.10565 10.9997 7.10565C9.28267 7.10565 7.89167 8.49765 7.89167 10.2146C7.89167 11.9306 9.28267 13.3226 10.9997 13.3226ZM3.74667 6.06965C3.17467 6.06965 2.71067 6.53365 2.71067 7.10565V13.3226C2.71067 13.8946 3.17467 14.3586 3.74667 14.3586C4.31967 14.3586 4.78267 13.8946 4.78267 13.3226V7.10565C4.78267 6.53365 4.31967 6.06965 3.74667 6.06965ZM18.2527 6.06965C17.6807 6.06965 17.2167 6.53365 17.2167 7.10565V13.3226C17.2167 13.8946 17.6807 14.3586 18.2527 14.3586C18.8247 14.3586 19.2887 13.8946 19.2887 13.3226V7.10565C19.2887 6.53365 18.8247 6.06965 18.2527 6.06965Z" fill="white"/>
</svg>
