<svg width="20" height="16" viewBox="0 0 20 16" fill="none" xmlns="http://www.w3.org/2000/svg">
<path d="M13.3333 8C13.3333 9.84095 11.8409 11.3333 10 11.3333C8.15905 11.3333 6.66667 9.84095 6.66667 8C6.66667 6.15905 8.15905 4.66667 10 4.66667C11.8409 4.66667 13.3333 6.15905 13.3333 8Z" fill="white"/>
<path fill-rule="evenodd" clip-rule="evenodd" d="M0 8C0 6.66667 4.28571 0.5 10 0.5C15.7143 0.5 20 6.66667 20 8C20 9.33333 15.7143 15.5 10 15.5C4.28571 15.5 0 9.33333 0 8ZM3.33333 8C3.33333 7.28571 6 3 10 3C14 3 16.6667 7.28571 16.6667 8C16.6667 8.71429 14 13 10 13C6 13 3.33333 8.71429 3.33333 8Z" fill="white"/>
</svg>
