<svg width="20" height="20" viewBox="0 0 20 20" fill="none" xmlns="http://www.w3.org/2000/svg">
<path fill-rule="evenodd" clip-rule="evenodd" d="M15.1812 0.377802L18.8286 4.02646C19.3322 4.53019 19.3322 5.34698 18.8286 5.85079L17.9168 6.76292C17.4132 7.26665 16.5967 7.26665 16.0931 6.76292L12.4458 3.11426C11.9422 2.61052 11.9422 1.79374 12.4458 1.29L13.3576 0.377802C13.8612 -0.125934 14.6776 -0.125934 15.1812 0.377802ZM11.534 4.02645C11.0304 3.52264 10.2138 3.52264 9.7103 4.02645L9.25441 4.48251L2.87156 10.8676L2.87321 10.8693L2.67209 11.0708C2.67209 11.0708 2.03067 11.7164 0.582494 16.3883L0.552025 16.4865C0.526206 16.5702 0.5001 16.6552 0.47378 16.7414C0.450464 16.8176 0.426861 16.8954 0.403188 16.9736L0.38821 17.0231L0.343181 17.1723C0.297263 17.3252 0.250774 17.4809 0.203355 17.6416L0.188404 17.692C0.0774394 18.0653 -0.141921 18.8032 0.132548 19.0782C0.405223 19.3515 1.19015 19.1187 1.55006 19.012L1.56607 19.0072C1.7257 18.9599 1.88041 18.9135 2.03232 18.8677C2.09399 18.8491 2.154 18.8309 2.21421 18.8125L2.23909 18.805L2.2663 18.7967C2.33087 18.777 2.39506 18.7575 2.45809 18.7381C2.54885 18.7103 2.63833 18.6828 2.7263 18.6555L2.80433 18.6312C7.25244 17.2471 8.05098 16.5976 8.11736 16.5382L8.11821 16.5374L8.12293 16.5332L8.32885 16.3269L8.34265 16.3407L14.7256 9.95557L14.7256 9.9555L15.1815 9.49944C15.685 8.9957 15.685 8.17892 15.1815 7.67511L11.534 4.02645ZM7.38854 15.7083C7.38296 15.712 7.37538 15.717 7.36737 15.722L7.35228 15.7316L7.33483 15.7423L7.31745 15.7529C7.1051 15.8799 6.48193 16.2076 4.96952 16.7547C4.79279 16.8186 4.60032 16.8863 4.3987 16.9562L2.24874 14.8055C2.31884 14.6025 2.38671 14.4087 2.45087 14.2308C2.99715 12.7131 3.3248 12.0885 3.45118 11.8766L3.45983 11.8623L3.47227 11.842L3.48129 11.8277L3.49509 11.8065L3.65244 11.6488L7.54932 15.5471L7.38854 15.7083Z" fill="white"/>
</svg>
