<svg width="19" height="19" viewBox="0 0 19 19" fill="none" xmlns="http://www.w3.org/2000/svg">
<path fill-rule="evenodd" clip-rule="evenodd" d="M17.6275 1.47467C17.1535 1.00067 16.5495 0.862665 15.8375 1.06767C15.0215 1.27066 14.1845 1.78567 13.4165 2.55367C13.0105 2.95867 12.1665 3.80267 10.9265 5.11867C10.8445 5.20567 10.7145 5.24367 10.6045 5.21267L1.91549 2.76666C1.67949 2.69966 1.42349 2.76566 1.25049 2.93966L0.321492 3.86966C0.166492 4.02466 0.0964918 4.23866 0.130492 4.45466C0.164492 4.67166 0.295492 4.85267 0.490492 4.95367L7.32449 8.48566C7.41149 8.53066 7.47149 8.61166 7.49049 8.70766C7.50849 8.80466 7.48249 8.90266 7.41949 8.97666L5.13949 11.6107C5.06749 11.6947 4.95349 11.7367 4.84549 11.7147L1.78149 11.1797C1.56549 11.1437 1.34049 11.2127 1.18449 11.3687L0.694492 11.8587C0.537492 12.0157 0.467492 12.2307 0.504492 12.4507C0.540492 12.6677 0.679492 12.8537 0.877492 12.9507L3.41849 14.1867L3.12249 14.8517C3.03049 15.1287 2.84249 15.7937 3.07549 16.0257C3.31349 16.2627 3.87249 16.1937 4.73749 15.8157C4.88649 15.7467 5.07049 15.8187 5.14449 15.9707L6.24249 18.2237C6.33849 18.4247 6.52149 18.5607 6.74149 18.5977C6.96049 18.6347 7.17649 18.5657 7.33349 18.4087L7.82449 17.9177C7.98049 17.7607 8.05049 17.5377 8.01249 17.3207L7.47849 14.2627C7.45849 14.1507 7.49949 14.0367 7.58549 13.9647L10.3005 11.6777C10.3765 11.6147 10.4725 11.5877 10.5685 11.6087C10.6655 11.6287 10.7455 11.6907 10.7895 11.7767L14.2405 18.6017C14.3395 18.7987 14.5215 18.9307 14.7385 18.9657C14.7755 18.9717 14.8125 18.9747 14.8495 18.9747C15.0275 18.9747 15.1975 18.9047 15.3275 18.7757L16.2525 17.8517C16.4255 17.6777 16.4925 17.4227 16.4255 17.1867L13.9755 8.48366C13.9445 8.37466 13.9745 8.25666 14.0525 8.17566L16.5495 5.59566C17.3705 4.77466 17.8425 4.03367 18.0335 3.26967C18.2135 2.63967 18.0815 2.04067 17.6275 1.47467" fill="white"/>
</svg>
