<svg width="22" height="20" viewBox="0 0 22 20" fill="none" xmlns="http://www.w3.org/2000/svg">
<path fill-rule="evenodd" clip-rule="evenodd" d="M7.00014 14.64C7.00014 13.298 8.08814 12.21 9.43014 12.21C10.7721 12.21 11.8601 13.298 11.8601 14.64C11.8601 15.982 10.7721 17.07 9.43014 17.07C8.09314 17.076 7.00514 15.996 7.00014 14.66V14.64ZM4.73014 12.4C3.38214 12.405 2.28614 11.317 2.28014 9.97003C2.27514 8.62203 3.36314 7.52503 4.71014 7.52003C6.05814 7.51403 7.15514 8.60203 7.16014 9.95003V10C7.14414 11.33 6.06114 12.4 4.73014 12.4ZM9.40014 2.86003C10.7481 2.83803 11.8571 3.91203 11.8801 5.26003C11.9021 6.60703 10.8271 7.71703 9.48014 7.73903C8.13314 7.76103 7.02214 6.68703 7.00014 5.34003C7.00014 5.32303 7.00014 5.30603 7.00014 5.29003C7.00014 3.95903 8.07014 2.87603 9.40014 2.86003ZM14.0701 7.55003C15.4171 7.54403 16.5151 8.63203 16.5201 9.98003C16.5251 11.327 15.4381 12.424 14.0901 12.43C12.7421 12.435 11.6461 11.348 11.6401 10C11.6181 8.65803 12.6881 7.55203 14.0301 7.53003C14.0431 7.53003 14.0571 7.53003 14.0701 7.53003V7.55003ZM19.7401 12.55C19.0881 13.922 18.0441 15.07 16.7401 15.85C19.9931 11.804 19.3501 5.88703 15.3041 2.63403C11.2581 -0.618966 5.34114 0.0240345 2.08814 4.07003C-1.16486 8.11603 -0.521864 14.033 3.52414 17.286C5.19514 18.629 7.27614 19.361 9.42014 19.36C9.42014 19.36 18.8101 20.5 21.8901 13.51C22.1551 12.916 21.8891 12.22 21.2951 11.955C20.7011 11.69 20.0051 11.956 19.7401 12.55Z" fill="white"/>
</svg>
