<svg width="19" height="23" viewBox="0 0 19 23" fill="none" xmlns="http://www.w3.org/2000/svg">
<path fill-rule="evenodd" clip-rule="evenodd" d="M10.419 16.6051C10.641 16.9371 10.662 17.3651 10.473 17.7181C10.284 18.0711 9.91701 18.2911 9.51701 18.2911H5.17601C4.77501 18.2911 4.40701 18.0711 4.21701 17.7171C4.02801 17.3641 4.04901 16.9371 4.27201 16.6041L5.36501 14.9621C3.60301 13.5731 0.833008 10.8531 0.833008 7.43808C0.833008 3.45608 4.42601 0.297078 8.54101 1.03408C10.852 1.44708 12.787 3.16508 13.523 5.39408C14.96 9.75608 11.428 13.3061 9.32401 14.9631L10.419 16.6051ZM3.54301 7.43808H4.62901C4.93101 7.43808 5.17601 7.19308 5.17601 6.89208V6.35308C5.17601 5.75608 5.66401 5.26808 6.26101 5.26808H6.80801C7.10601 5.26808 7.34601 5.02608 7.34601 4.72908V3.64408C7.34601 3.34208 7.10201 3.09708 6.80001 3.09708H6.26101C4.46301 3.09708 3.00501 4.55508 3.00501 6.35308V6.90008C3.00501 7.19708 3.24601 7.43808 3.54301 7.43808Z" fill="white"/>
<path d="M13.247 18.9376C13.551 16.2746 14.78 14.5846 17.589 14.5846C17.979 14.5846 18.385 14.7036 18.389 15.1776C18.394 15.7856 18.019 16.0496 17.112 16.1206C15.926 16.2136 15.012 17.0856 14.943 18.2726C14.858 19.7236 14.389 21.1586 13.141 21.8976C10.42 23.5056 7.66901 22.2806 6.66801 20.0906C6.51701 19.7596 6.76601 19.3786 7.13001 19.3786H7.90401C8.12501 19.3786 8.33101 19.4886 8.46001 19.6686C9.25501 20.7816 10.458 21.8126 12.326 20.7406C13 20.3536 13.166 19.6536 13.247 18.9376Z" fill="white"/>
</svg>
