<svg width="24" height="21" viewBox="0 0 24 21" fill="none" xmlns="http://www.w3.org/2000/svg">
<path fill-rule="evenodd" clip-rule="evenodd" d="M16.7811 2.9301C18.3151 2.5201 19.9361 2.5121 21.6971 3.2361C22.1561 3.4251 22.6841 3.2411 22.9331 2.8101C23.2361 2.2851 22.9951 1.6311 22.4461 1.3751C18.8701 -0.286902 14.3991 -0.229902 12.0081 4.3451C10.2001 0.418097 6.7331 -0.871903 1.5731 1.3741C1.0161 1.6171 0.781101 2.2851 1.0851 2.8121C1.3331 3.2421 1.8661 3.4401 2.3181 3.2361C4.0171 2.4701 5.4091 2.3521 6.9411 2.7631C8.2161 3.1041 9.5481 3.5711 11.0941 5.2431C5.6621 4.9501 3.1391 8.4451 3.0531 12.5861C3.0401 13.1871 3.4551 13.7091 4.0551 13.7091C4.5521 13.7091 4.8441 13.3071 5.0411 12.8501C6.6071 9.2181 8.3621 7.7141 11.5561 6.7131L8.9281 20.7271H14.9451L14.5691 18.7221H11.9361V17.7191H14.3811L14.0051 15.7141H11.9371V14.7111H13.8181L13.4411 12.7051H11.9371V11.7021H13.2531L12.3161 6.7061C14.8891 7.3171 18.0141 9.3651 18.9751 12.8361C19.1091 13.3211 19.4601 13.7091 19.9631 13.7091C20.5631 13.7091 21.0241 13.1841 20.9651 12.5861C20.4791 7.6301 18.5371 5.1351 12.7711 5.3021C14.8601 3.4641 15.5081 3.2711 16.7811 2.9301Z" fill="white"/>
</svg>
