<svg width="57" height="60" viewBox="0 0 57 60" fill="none" xmlns="http://www.w3.org/2000/svg">
<path fill-rule="evenodd" clip-rule="evenodd" d="M51.2994 42.0002H32.5318L26.8312 35.9992L32.5318 29.9981H51.2994V42.0002ZM35.672 6.80524L38.1369 11.9983H23.3503L35.672 6.80524ZM54.1497 23.9971H51.2994V17.996C51.2994 14.6904 48.742 11.9983 45.5987 11.9983H44.5096L39.5955 1.65574C38.9331 0.261087 37.3662 -0.362486 35.9873 0.214151L7.99682 11.9983H5.69745C2.55414 11.9983 0 14.6904 0 17.996V54.0023C0 57.3079 2.55414 60 5.69745 60H45.5987C48.742 60 51.2994 57.3079 51.2994 54.0023V48.0013H54.1497C55.7229 48.0013 57 46.6569 57 45.0007V26.9976C57 25.3448 55.7229 23.9971 54.1497 23.9971ZM37.049 32.9983C38.6223 32.9983 39.8994 34.3427 39.8994 35.9988C39.8994 37.655 38.6223 38.9994 37.049 38.9994C35.4758 38.9994 34.1987 37.655 34.1987 35.9988C34.1987 34.3427 35.4758 32.9983 37.049 32.9983Z" fill="#5833EE"/>
</svg>
