<svg width="22" height="18" viewBox="0 0 22 18" fill="none" xmlns="http://www.w3.org/2000/svg">
<path d="M21.0049 5.26916L11.4279 0.480156C11.1589 0.345156 10.8399 0.345156 10.5699 0.480156L0.992867 5.26916C0.799867 5.36516 0.652867 5.53116 0.566867 5.71216C0.508867 5.82916 0.463867 6.02716 0.463867 6.12616V11.6472C0.463867 12.1762 0.893867 12.6052 1.42187 12.6052C1.95087 12.6052 2.37987 12.1762 2.37987 11.6472V7.24416L11.0139 10.8402L20.9329 7.01516C21.2829 6.87416 21.5179 6.54316 21.5339 6.16516C21.5499 5.78816 21.3419 5.43816 21.0049 5.26916Z" fill="white"/>
<path d="M10.9995 12.8302C10.8745 12.8302 10.7485 12.8052 10.6305 12.7562L4.29547 10.1172V13.0022C4.29547 13.3662 4.50047 13.6972 4.82547 13.8602C4.98231 13.9386 5.13962 14.0188 5.29834 14.0997C6.80135 14.866 8.43165 15.6972 10.9995 15.6972C13.5685 15.6972 15.2025 14.8638 16.7049 14.0976C16.8622 14.0174 17.0181 13.9379 17.1735 13.8602C17.4985 13.6982 17.7035 13.3662 17.7035 13.0032V10.3212L11.3435 12.7672C11.2325 12.8082 11.1165 12.8302 10.9995 12.8302Z" fill="white"/>
<path d="M0.464367 14.7462C0.464367 14.2172 0.893367 13.7882 1.42237 13.7882C1.95037 13.7882 2.38037 14.2172 2.38037 14.7462V16.6612C2.38037 17.1902 1.95037 17.6192 1.42237 17.6192C0.893367 17.6192 0.464367 17.1902 0.464367 16.6612V14.7462Z" fill="white"/>
</svg>
