<svg width="20" height="20" viewBox="0 0 20 20" fill="none" xmlns="http://www.w3.org/2000/svg">
<path d="M14.412 6.874C13.653 6.115 12.416 6.115 11.657 6.874L10.28 5.496C11.799 3.978 14.272 3.978 15.789 5.496L14.412 6.874Z" fill="white"/>
<path fill-rule="evenodd" clip-rule="evenodd" d="M13.0344 0.575195C14.7034 0.575195 16.3314 1.2862 17.6194 2.5742C18.9074 3.8612 19.6174 5.4892 19.6174 7.1582C19.6174 8.8282 18.9074 10.4562 17.6194 11.7432L11.7754 17.5882C10.4884 18.8762 8.86042 19.5852 7.19042 19.5852C5.52142 19.5852 3.89242 18.8772 2.60542 17.5882C1.31742 16.3002 0.607422 14.6722 0.607422 13.0032C0.607422 11.3332 1.31742 9.70619 2.60542 8.4182L8.45042 2.5742C9.73642 1.2852 11.3654 0.575195 13.0344 0.575195ZM14.2944 12.3142L16.2424 10.3662C17.1764 9.4332 17.6694 8.32419 17.6694 7.1582C17.6694 5.9932 17.1764 4.8842 16.2424 3.9512C15.3084 3.0182 14.1994 2.5242 13.0344 2.5242C11.8684 2.5242 10.7604 3.0182 9.82642 3.9512L7.87942 5.8992L14.2944 12.3142Z" fill="white"/>
</svg>
