<svg width="21" height="22" viewBox="0 0 21 22" fill="none" xmlns="http://www.w3.org/2000/svg">
<path d="M7.70905 8.47975C7.70905 8.75575 7.48505 8.97975 7.20905 8.97975C7.07006 8.97975 6.96505 8.91675 6.85505 8.83275C6.20205 8.34375 5.79306 7.65975 5.67905 6.83875C5.57205 6.06275 5.74205 5.22475 6.15605 4.47875C6.82305 3.27975 7.08805 2.48975 6.79605 1.24275C6.75205 1.05175 6.82705 0.857749 6.98705 0.748749C7.14405 0.640749 7.36005 0.639749 7.51805 0.745749C8.22806 1.22475 8.67805 1.91975 8.81806 2.75675C8.97806 3.70175 8.70405 4.75575 8.08706 5.57875C7.57006 6.26775 7.43905 7.20875 7.69805 8.37475C7.69805 8.37475 7.70905 8.42175 7.70905 8.47975Z" fill="white"/>
<path fill-rule="evenodd" clip-rule="evenodd" d="M17.7736 12.0664H17.6786C17.4986 12.0664 17.3536 11.9204 17.3556 11.7404C17.3566 11.6884 17.3566 11.6354 17.3566 11.5824C17.3566 10.2374 15.8226 10.3154 15.8226 10.3154H1.57555C0.715555 10.3154 0.0185547 11.0124 0.0185547 11.8714V12.6084C0.0185547 14.9674 0.956555 17.4485 2.49355 19.2444C3.72855 20.6875 5.55955 21.4825 7.45955 21.4825H9.92756C11.8666 21.4825 13.7256 20.6464 14.9676 19.1574C14.9676 19.1574 15.2176 18.8694 15.5566 18.3184C15.6146 18.2234 15.7196 18.1654 15.8316 18.1654H17.8486C19.5686 18.1654 20.9606 16.7324 20.8946 14.9984C20.8326 13.3474 19.4246 12.0664 17.7736 12.0664ZM17.8106 16.4524H16.9346C16.7106 16.4524 16.5566 16.2324 16.6296 16.0214C16.8306 15.4394 17.0106 14.7804 17.1406 14.0494C17.1686 13.8934 17.3016 13.7794 17.4596 13.7794H17.8486C18.6906 13.7794 19.3716 14.5914 19.1386 15.4644C18.9806 16.0564 18.4226 16.4524 17.8106 16.4524Z" fill="white"/>
<path d="M11.566 2.96135C12.101 3.32135 12.439 3.84535 12.545 4.47535C12.663 5.17635 12.462 5.95835 12.006 6.56535C11.688 6.98835 11.61 7.57935 11.774 8.31935C11.776 8.32635 11.787 8.37435 11.787 8.43535C11.786 8.73635 11.542 8.97935 11.242 8.97935C11.085 8.97935 10.969 8.90835 10.877 8.83835C10.383 8.46835 10.077 7.94835 9.99195 7.33635C9.91295 6.76135 10.037 6.14135 10.343 5.59135C10.784 4.79935 10.949 4.31135 10.762 3.51535C10.713 3.30335 10.797 3.08635 10.975 2.96335C11.152 2.84235 11.39 2.84135 11.566 2.96135Z" fill="white"/>
</svg>
