<svg width="18" height="20" viewBox="0 0 18 20" fill="none" xmlns="http://www.w3.org/2000/svg">
<path fill-rule="evenodd" clip-rule="evenodd" d="M14.713 9.64148H3.30303C3.11903 9.64148 2.97003 9.49248 2.97003 9.30848V4.10948C2.97003 3.92548 3.11903 3.77548 3.30303 3.77548H14.713C14.898 3.77548 15.047 3.92548 15.047 4.10948V9.30848C15.047 9.49248 14.898 9.64148 14.713 9.64148ZM13.674 15.6735C12.731 15.7565 11.951 14.9765 12.033 14.0335C12.096 13.3155 12.683 12.7295 13.401 12.6665C14.344 12.5845 15.123 13.3635 15.041 14.3065C14.978 15.0245 14.391 15.6115 13.674 15.6735ZM4.61503 15.6735C3.67303 15.7565 2.89403 14.9765 2.97603 14.0335C3.03803 13.3155 3.62503 12.7295 4.34303 12.6665C5.28603 12.5845 6.06603 13.3635 5.98303 14.3065C5.92003 15.0245 5.33303 15.6115 4.61503 15.6735ZM0.957031 14.5285C0.957031 15.4145 1.35003 16.2095 1.96303 16.7635V18.5545C1.96303 19.1075 2.41603 19.5605 2.97003 19.5605H3.97603C4.52903 19.5605 4.98303 19.1075 4.98303 18.5545V17.5475H13.033V18.5545C13.033 19.1075 13.486 19.5605 14.04 19.5605H15.047C15.6 19.5605 16.053 19.1075 16.053 18.5545V16.7635C16.667 16.2095 17.06 15.4145 17.06 14.5285V4.46448C17.06 0.942477 13.456 0.438477 9.00803 0.438477C4.56003 0.438477 0.957031 0.942477 0.957031 4.46448V14.5285Z" fill="white"/>
</svg>
