<svg width="18" height="21" viewBox="0 0 18 21" fill="none" xmlns="http://www.w3.org/2000/svg">
<path d="M10.9642 5.6009C8.81116 5.6009 7.07716 4.8279 6.42716 4.1789C5.20216 2.9539 3.10916 3.8209 3.10816 5.5539V14.4409C3.10816 14.512 3.11604 14.5797 3.12399 14.6479C3.12901 14.691 3.13406 14.7344 3.13716 14.7789C1.59816 13.8249 0.160156 12.4239 0.160156 10.5119V1.6719C0.160156 1.2759 0.402156 0.915899 0.768156 0.764899C1.13516 0.611899 1.55716 0.695899 1.83716 0.977899C1.90416 1.0419 3.60616 2.6549 7.03616 2.6549C10.4662 2.6549 12.1702 1.0419 12.2402 0.972899C12.5252 0.698899 12.9472 0.617899 13.3092 0.770899C13.6722 0.923899 13.9112 1.2789 13.9112 1.6719V5.0829C13.1822 5.3629 12.2142 5.6009 10.9642 5.6009Z" fill="white"/>
<path fill-rule="evenodd" clip-rule="evenodd" d="M16.1695 4.9014C16.4515 4.6274 16.8755 4.5474 17.2375 4.6994C17.6005 4.8524 17.8405 5.2074 17.8405 5.6004V14.4404C17.8405 18.3274 11.9075 20.1064 11.2305 20.2974C11.1435 20.3214 11.0545 20.3334 10.9645 20.3334C10.8765 20.3334 10.7865 20.3214 10.6995 20.2974C10.0235 20.1064 4.09046 18.3274 4.09046 14.4404V5.6004C4.09046 5.2044 4.33046 4.8454 4.69646 4.6934C5.06446 4.5404 5.48446 4.6244 5.76646 4.9064C5.83146 4.9704 7.53446 6.5834 10.9645 6.5834C14.3945 6.5834 16.0985 4.9704 16.1695 4.9014ZM12.7445 11.4934C12.7445 12.1394 13.2655 12.6604 13.9115 12.6604C14.5565 12.6604 15.0775 12.1394 15.0775 11.4934C15.0775 10.8484 14.5565 10.3274 13.9115 10.3274C13.2655 10.3274 12.7445 10.8484 12.7445 11.4934ZM10.9655 17.3874C12.3725 17.3874 13.1955 16.6404 13.5995 15.7924C13.8975 15.1644 13.4375 14.4374 12.7425 14.4334C12.3725 14.4314 11.9955 14.6064 11.8395 14.9424C11.7145 15.2114 11.4585 15.4224 10.9655 15.4224V15.4294C10.4725 15.4294 10.2165 15.2184 10.0915 14.9494C9.93446 14.6144 9.55746 14.4384 9.18746 14.4404C8.49246 14.4444 8.03246 15.1714 8.33146 15.7994C8.73446 16.6474 9.55746 17.3934 10.9655 17.3934V17.3874ZM8.01746 10.3274C7.37346 10.3274 6.85146 10.8484 6.85146 11.4934C6.85146 12.1394 7.37346 12.6604 8.01746 12.6604C8.66346 12.6604 9.18446 12.1394 9.18446 11.4934C9.18446 10.8484 8.66346 10.3274 8.01746 10.3274Z" fill="white"/>
</svg>
