<svg width="19" height="19" viewBox="0 0 19 19" fill="none" xmlns="http://www.w3.org/2000/svg">
<path fill-rule="evenodd" clip-rule="evenodd" d="M13.5925 5.8501H16.4235C17.4275 5.8501 18.2415 6.6651 18.2415 7.6681V10.3951H10.0605V6.7591H8.24255V10.3951H0.0605469V7.6681C0.0605469 6.6651 0.876547 5.8501 1.87855 5.8501H4.70955C4.29955 5.6361 3.91155 5.3761 3.58655 5.0521C2.52355 3.9891 2.52355 2.2591 3.58655 1.1961C4.61655 0.166102 6.41155 0.166102 7.44255 1.1941C8.93155 2.6821 9.13255 5.4831 9.14955 5.7971C9.15066 5.80823 9.14837 5.81781 9.14611 5.82723C9.14432 5.83473 9.14255 5.84212 9.14255 5.8501H9.16055C9.16055 5.84164 9.15856 5.83385 9.15656 5.82599C9.1543 5.81712 9.15202 5.80818 9.15255 5.7981C9.17155 5.4841 9.37155 2.6831 10.8595 1.1951C11.8915 0.165102 13.6835 0.166102 14.7155 1.1941C15.7785 2.2601 15.7785 3.9891 14.7155 5.0521C14.3915 5.3761 14.0025 5.6361 13.5925 5.8501ZM12.1445 2.4811C11.6075 3.0171 11.2955 3.9791 11.1275 4.7821C11.9305 4.6161 12.8935 4.3041 13.4305 3.7661C13.7845 3.4111 13.7835 2.8351 13.4295 2.4791C13.2595 2.3081 13.0315 2.2151 12.7875 2.2151C12.5445 2.2151 12.3155 2.3081 12.1445 2.4811ZM4.87255 2.4801C4.51755 2.8351 4.51755 3.4111 4.87255 3.7661C5.40455 4.2991 6.37455 4.6141 7.17355 4.7801C7.00655 3.9781 6.69355 3.0161 6.15755 2.4801C5.98655 2.3081 5.75855 2.2151 5.51555 2.2151C5.27155 2.2151 5.04355 2.3081 4.87255 2.4801Z" fill="white"/>
<path d="M0.969847 12.2118V16.7588C0.969847 17.7618 1.78485 18.5768 2.78785 18.5768H8.24185V12.2118H0.969847Z" fill="white"/>
<path d="M10.0602 12.2118V18.5768H15.5152C16.5182 18.5768 17.3322 17.7618 17.3322 16.7588V12.2118H10.0602Z" fill="white"/>
</svg>
