<svg width="18" height="22" viewBox="0 0 18 22" fill="none" xmlns="http://www.w3.org/2000/svg">
<path fill-rule="evenodd" clip-rule="evenodd" d="M13.7413 16.2679C12.8663 16.2679 12.1603 15.5619 12.1603 14.6869C12.1603 13.8129 12.8663 13.1069 13.7413 13.1069C14.6163 13.1069 15.3223 13.8129 15.3223 14.6869C15.3223 15.5619 14.6163 16.2679 13.7413 16.2679ZM9.52631 7.83791V4.85291C9.52631 4.27091 9.99831 3.79891 10.5803 3.79891H14.7953C15.3763 3.79891 15.8483 4.27091 15.8483 4.85291V7.83791C15.8483 8.41991 15.3763 8.89191 14.7953 8.89191H10.5803C9.99831 8.89191 9.52631 8.41991 9.52631 7.83791ZM7.41931 8.89191H3.20431C2.62231 8.89191 2.15031 8.41991 2.15031 7.83791V4.85291C2.15031 4.27091 2.62231 3.79891 3.20431 3.79891H7.41931C8.00131 3.79891 8.47231 4.27091 8.47231 4.85291V7.83791C8.47231 8.41991 8.00131 8.89191 7.41931 8.89191ZM4.25831 16.2679C3.38331 16.2679 2.67731 15.5619 2.67731 14.6869C2.67731 13.8129 3.38331 13.1069 4.25831 13.1069C5.13231 13.1069 5.83831 13.8129 5.83831 14.6869C5.83831 15.5619 5.13231 16.2679 4.25831 16.2679ZM8.99931 0.461914C4.78431 0.461914 0.570312 0.988914 0.570312 4.67691V14.6869C0.570312 16.7209 2.22431 18.3749 4.25831 18.3749L1.62331 21.0089V21.5359H3.10031C3.65931 21.5359 4.19531 21.3139 4.59131 20.9189L7.13431 18.3749H11.1073L13.6513 20.9189C14.0463 21.3139 14.5823 21.5359 15.1403 21.5359H16.3753V21.0089L13.7413 18.3749C15.7753 18.3749 17.4293 16.7209 17.4293 14.6869V4.67691C17.4293 0.988914 13.6573 0.461914 8.99931 0.461914Z" fill="white"/>
</svg>
