<svg width="22" height="19" viewBox="0 0 22 19" fill="none" xmlns="http://www.w3.org/2000/svg">
<path fill-rule="evenodd" clip-rule="evenodd" d="M8.09961 4.89977L2.89961 10.0998C2.79961 10.1998 2.59961 10.3998 2.59961 10.5998L1.39961 8.99977C0.0996091 6.89977 0.399609 4.19977 2.19961 2.49977C4.29961 0.399773 7.59961 0.399773 9.69961 2.49977C9.69961 2.49977 9.69961 2.49977 9.79961 2.49977L13.8996 6.59977C14.0996 6.79977 14.1996 7.09977 14.1996 7.39977C14.1996 7.69977 14.0996 7.99977 13.8996 8.19977C13.4996 8.59977 12.7996 8.59977 12.3996 8.19977L9.19961 4.99977C9.09961 4.89977 8.89961 4.79977 8.79961 4.79977C8.39961 4.69977 8.19961 4.79977 8.09961 4.89977ZM13.2996 1.59977C15.3996 0.199773 18.1996 0.499773 19.9996 2.19977C20.9996 3.19977 21.4996 4.49977 21.4996 5.89977C21.4996 7.29977 20.9996 8.59977 19.9996 9.59977C19.9996 9.59977 19.9996 9.59977 19.9996 9.69977L11.2996 18.3998C11.0996 18.5998 10.8996 18.6998 10.6996 18.6998C10.4996 18.6998 10.2996 18.5998 10.0996 18.3998C9.89961 18.1998 9.79961 17.9998 9.79961 17.7998C9.79961 17.5998 9.89961 17.3998 10.0996 17.1998L13.8996 13.3998C14.0996 13.1998 14.0996 12.7998 13.8996 12.4998C13.6996 12.2998 13.2996 12.2998 12.9996 12.4998L9.19961 16.2998C8.99961 16.4998 8.79961 16.5998 8.59961 16.5998C8.39961 16.5998 8.09961 16.4998 7.99961 16.2998C7.79961 16.0998 7.69961 15.8998 7.69961 15.6998C7.69961 15.4998 7.79961 15.2998 7.99961 15.0998L11.7996 11.2998C11.9996 11.0998 11.9996 10.6998 11.7996 10.3998C11.5996 10.1998 11.1996 10.1998 10.8996 10.3998L7.09961 14.1998C6.79961 14.4998 6.19961 14.4998 5.89961 14.1998C5.69961 13.9998 5.59961 13.7998 5.59961 13.5998C5.59961 13.3998 5.69961 13.1998 5.89961 12.9998L9.69961 9.19977C9.89961 8.99977 9.89961 8.59977 9.69961 8.29977C9.49961 8.09977 9.09961 8.09977 8.79961 8.29977L4.99961 12.1998C4.69961 12.4998 4.09961 12.4998 3.79961 12.1998L3.69961 12.0998C3.59961 11.8998 3.49961 11.7998 3.49961 11.5998C3.49961 11.3998 3.59961 11.0998 3.79961 10.9998L8.59961 6.19977L11.3996 8.99977C11.7996 9.39977 12.3996 9.69977 12.9996 9.69977C13.5996 9.69977 14.1996 9.49977 14.5996 8.99977C14.9996 8.59977 15.2996 7.99977 15.2996 7.39977C15.2996 6.79977 15.0996 6.19977 14.5996 5.79977L11.7996 2.99977C12.2996 2.39977 13.0996 1.69977 13.2996 1.59977Z" fill="white"/>
</svg>
