<svg width="40" height="40" viewBox="0 0 40 40" fill="none" xmlns="http://www.w3.org/2000/svg">
<circle cx="20" cy="20" r="20" fill="#C7C9CC"/>
<path fill-rule="evenodd" clip-rule="evenodd" d="M14.9422 12.5852L12.8452 10.4882C12.1943 9.83728 11.139 9.83728 10.4882 10.4882C9.83728 11.139 9.83728 12.1943 10.4882 12.8452L13.1344 15.4914C11.1829 17.265 10 19.2995 10 20C10 21.3333 14.2857 27.5 20 27.5C21.4774 27.5 22.8594 27.0878 24.0964 26.4534L27.1548 29.5118C27.8057 30.1627 28.861 30.1627 29.5118 29.5118C30.1627 28.861 30.1627 27.8057 29.5118 27.1548L28.7481 26.3911C28.6562 26.3303 28.5691 26.2594 28.4882 26.1785L15.1548 12.8452C15.0739 12.7643 15.003 12.6771 14.9422 12.5852ZM15.0221 17.3791C13.9451 18.4965 13.3333 19.6579 13.3333 20C13.3333 20.7143 16 25 20 25C20.7895 25 21.5271 24.833 22.2025 24.5595L20.8634 23.2204C20.588 23.2941 20.2986 23.3333 20 23.3333C18.1591 23.3333 16.6667 21.8409 16.6667 20C16.6667 19.7014 16.7059 19.412 16.7796 19.1366L15.0221 17.3791Z" fill="white"/>
<path d="M29.0483 22.0246C29.6617 21.1309 30 20.3746 30 20C30 18.6667 25.7143 12.5 20 12.5C19.8446 12.5 19.6903 12.5046 19.5371 12.5135L22.6795 15.6558C24.6607 16.6431 26.0315 18.4989 26.4943 19.4706L29.0483 22.0246Z" fill="white"/>
</svg>
