<svg width="20" height="20" viewBox="0 0 20 20" fill="none" xmlns="http://www.w3.org/2000/svg">
<path fill-rule="evenodd" clip-rule="evenodd" d="M4.94225 2.58522L2.84518 0.488155C2.1943 -0.162718 1.13903 -0.162718 0.488155 0.488155C-0.162718 1.13903 -0.162718 2.1943 0.488155 2.84518L3.13442 5.49144C1.18291 7.26496 0 9.29951 0 10C0 11.3333 4.28571 17.5 10 17.5C11.4774 17.5 12.8594 17.0878 14.0964 16.4534L17.1548 19.5118C17.8057 20.1627 18.861 20.1627 19.5118 19.5118C20.1627 18.861 20.1627 17.8057 19.5118 17.1548L18.7481 16.3911C18.6562 16.3303 18.5691 16.2594 18.4882 16.1785L5.15482 2.84518C5.0739 2.76426 5.00305 2.67709 4.94225 2.58522ZM5.02205 7.37908C3.94507 8.49648 3.33333 9.65789 3.33333 10C3.33333 10.7143 6 15 10 15C10.7895 15 11.5271 14.833 12.2025 14.5595L10.8634 13.2204C10.588 13.2941 10.2986 13.3333 10 13.3333C8.15905 13.3333 6.66667 11.8409 6.66667 10C6.66667 9.7014 6.70593 9.41197 6.77957 9.13659L5.02205 7.37908Z" fill="white"/>
<path d="M19.0483 12.0246C19.6617 11.1309 20 10.3746 20 10C20 8.66667 15.7143 2.5 10 2.5C9.84464 2.5 9.69034 2.50456 9.53714 2.51345L12.6795 5.6558C14.6607 6.64311 16.0315 8.49889 16.4943 9.47064L19.0483 12.0246Z" fill="white"/>
</svg>
