<svg width="40" height="40" viewBox="0 0 40 40" fill="none" xmlns="http://www.w3.org/2000/svg">
<circle cx="20" cy="20" r="20" fill="#5833EE"/>
<path fill-rule="evenodd" clip-rule="evenodd" d="M27.2979 22.8741H21.4049L19.6149 21.0841L21.4049 19.2941H27.2979V22.8741ZM22.3909 12.3761L23.1649 13.9251H18.5219L22.3909 12.3761ZM28.1929 17.5041H27.2979V15.7141C27.2979 14.7281 26.4949 13.9251 25.5079 13.9251H25.1659L23.6229 10.8401C23.4149 10.4241 22.9229 10.2381 22.4899 10.4101L13.7009 13.9251H12.9789C11.9919 13.9251 11.1899 14.7281 11.1899 15.7141V26.4541C11.1899 27.4401 11.9919 28.2431 12.9789 28.2431H25.5079C26.4949 28.2431 27.2979 27.4401 27.2979 26.4541V24.6641H28.1929C28.6869 24.6641 29.0879 24.2631 29.0879 23.7691V18.3991C29.0879 17.9061 28.6869 17.5041 28.1929 17.5041ZM22.8233 20.189C23.3173 20.189 23.7183 20.59 23.7183 21.084C23.7183 21.578 23.3173 21.979 22.8233 21.979C22.3293 21.979 21.9283 21.578 21.9283 21.084C21.9283 20.59 22.3293 20.189 22.8233 20.189Z" fill="white"/>
</svg>
