<svg width="22" height="18" viewBox="0 0 22 18" fill="none" xmlns="http://www.w3.org/2000/svg">
<path d="M17.7554 0.544284C17.3764 0.923284 17.3324 1.53028 17.6684 1.94828C18.8894 3.46228 19.5524 5.33328 19.5524 7.30528C19.5524 9.27728 18.8894 11.1473 17.6694 12.6603C17.3324 13.0783 17.3764 13.6853 17.7554 14.0643C18.2074 14.5163 18.9564 14.4743 19.3564 13.9753C20.8694 12.0873 21.6914 9.75928 21.6914 7.30528C21.6914 4.85128 20.8694 2.52228 19.3564 0.633284C18.9564 0.134284 18.2074 0.092284 17.7554 0.544284Z" fill="white"/>
<path d="M10.9966 5.16628C9.81362 5.16628 8.85762 6.12528 8.85762 7.30528C8.85762 8.09328 9.28962 8.77528 9.92762 9.14728V18.0003H12.0656V9.14728C12.7036 8.77528 13.1356 8.09328 13.1356 7.30528C13.1356 6.12528 12.1776 5.16628 10.9966 5.16628Z" fill="white"/>
<path d="M5.67402 3.71938C6.04102 3.17738 6.83102 3.13838 7.29302 3.60138C7.66302 3.97138 7.69102 4.53938 7.40602 4.97738C6.95902 5.66438 6.71902 6.46738 6.71902 7.30538C6.71902 8.14438 6.95802 8.94538 7.40502 9.63138C7.69002 10.0694 7.66302 10.6384 7.29302 11.0084C6.83102 11.4714 6.04102 11.4324 5.67402 10.8904C4.96202 9.84038 4.58002 8.60138 4.58002 7.30538C4.58002 6.00838 4.96202 4.77038 5.67402 3.71938Z" fill="white"/>
<path d="M14.6997 3.60138C14.3297 3.97138 14.3017 4.54038 14.5877 4.97838C15.0347 5.66438 15.2747 6.46738 15.2747 7.30538C15.2747 8.14338 15.0347 8.94538 14.5877 9.63138C14.3027 10.0694 14.3297 10.6384 14.6997 11.0084C15.1627 11.4714 15.9527 11.4324 16.3197 10.8914C17.0307 9.84038 17.4127 8.60138 17.4127 7.30538C17.4127 6.00838 17.0307 4.77038 16.3197 3.71938C15.9527 3.17738 15.1617 3.13938 14.6997 3.60138Z" fill="white"/>
<path d="M0.307617 7.30758C0.307617 4.85258 1.12862 2.52458 2.64162 0.635584C3.04162 0.136584 3.79062 0.093584 4.24262 0.546584C4.62162 0.925584 4.66562 1.53158 4.32962 1.94958C3.10862 3.46458 2.44562 5.33558 2.44562 7.30758C2.44562 9.27958 3.10862 11.1486 4.32862 12.6626C4.66562 13.0806 4.62162 13.6866 4.24262 14.0666C3.79062 14.5186 3.04162 14.4766 2.64162 13.9776C1.12862 12.0896 0.307617 9.76158 0.307617 7.30758Z" fill="white"/>
</svg>
