<svg width="14" height="22" viewBox="0 0 14 22" fill="none" xmlns="http://www.w3.org/2000/svg">
<path fill-rule="evenodd" clip-rule="evenodd" d="M2.31181 16.4399H11.6148V3.58085H2.31181V16.4399ZM6.98781 20.4169C6.21781 20.4169 5.59381 19.7929 5.59381 19.0229C5.59381 18.2529 6.21781 17.6289 6.98781 17.6289C7.75781 17.6289 8.38181 18.2529 8.38181 19.0229C8.38181 19.7929 7.75781 20.4169 6.98781 20.4169ZM11.5178 0.547852H2.47381C1.31981 0.547852 0.382812 1.48485 0.382812 2.63885V19.3609C0.382812 20.5149 1.31981 21.4519 2.47381 21.4519H11.5178C12.6718 21.4519 13.6078 20.5149 13.6078 19.3609V2.63885C13.6078 1.48385 12.6718 0.547852 11.5178 0.547852Z" fill="white"/>
</svg>
