<svg width="40" height="40" viewBox="0 0 40 40" fill="none" xmlns="http://www.w3.org/2000/svg">
<circle cx="20" cy="20" r="20" fill="#C7C9CC"/>
<path fill-rule="evenodd" clip-rule="evenodd" d="M26.1812 10.3778L29.8286 14.0265C30.3322 14.5302 30.3322 15.347 29.8286 15.8508L28.9168 16.7629C28.4132 17.2667 27.5967 17.2667 27.0931 16.7629L23.4458 13.1143C22.9422 12.6105 22.9422 11.7937 23.4458 11.29L24.3576 10.3778C24.8612 9.87407 25.6776 9.87407 26.1812 10.3778ZM22.534 14.0265C22.0304 13.5226 21.2138 13.5226 20.7103 14.0265L20.2544 14.4825L13.8716 20.8676L13.8732 20.8693L13.6721 21.0708C13.6721 21.0708 13.0307 21.7164 11.5825 26.3883L11.552 26.4865C11.5262 26.5702 11.5001 26.6552 11.4738 26.7414C11.4505 26.8176 11.4269 26.8954 11.4032 26.9736L11.3882 27.0231L11.3432 27.1723C11.2973 27.3252 11.2508 27.4809 11.2034 27.6416L11.1884 27.692C11.0774 28.0653 10.8581 28.8032 11.1325 29.0782C11.4052 29.3515 12.1902 29.1187 12.5501 29.012L12.5661 29.0072C12.7257 28.9599 12.8804 28.9135 13.0323 28.8677C13.0935 28.8493 13.153 28.8312 13.2127 28.813L13.2127 28.813L13.2391 28.805L13.2676 28.7963C13.3317 28.7768 13.3955 28.7574 13.4581 28.7381C13.5489 28.7103 13.6383 28.6828 13.7263 28.6555L13.8043 28.6312C18.2524 27.2471 19.051 26.5976 19.1174 26.5382L19.1182 26.5374L19.1229 26.5332L19.3288 26.3269L19.3427 26.3407L25.7256 19.9556L25.7256 19.9555L26.1815 19.4994C26.685 18.9957 26.685 18.1789 26.1815 17.6751L22.534 14.0265ZM18.3885 25.7083C18.383 25.712 18.3754 25.717 18.3674 25.722L18.3523 25.7316L18.3348 25.7423L18.3175 25.7529C18.1051 25.8799 17.4819 26.2076 15.9695 26.7547C15.7928 26.8186 15.6003 26.8863 15.3987 26.9562L13.2487 24.8055C13.3188 24.6025 13.3867 24.4087 13.4509 24.2308C13.9972 22.7131 14.3248 22.0885 14.4512 21.8766L14.4598 21.8623L14.4723 21.842L14.4813 21.8277L14.4951 21.8065L14.6524 21.6488L18.5493 25.5471L18.3885 25.7083Z" fill="white"/>
</svg>
