<svg width="22" height="6" viewBox="0 0 22 6" fill="none" xmlns="http://www.w3.org/2000/svg">
<path d="M5.3252 2.99902C5.3252 4.38002 4.2052 5.49902 2.8252 5.49902C1.4442 5.49902 0.325195 4.38002 0.325195 2.99902C0.325195 1.61802 1.4442 0.499023 2.8252 0.499023C4.2052 0.499023 5.3252 1.61802 5.3252 2.99902Z" fill="white"/>
<path d="M13.5 2.99952C13.5 4.38052 12.381 5.49952 11 5.49952C9.619 5.49952 8.5 4.38052 8.5 2.99952C8.5 1.61852 9.619 0.499523 11 0.499523C12.381 0.499523 13.5 1.61852 13.5 2.99952Z" fill="white"/>
<path d="M19.1748 5.49952C20.5558 5.49952 21.6748 4.38052 21.6748 2.99952C21.6748 1.61852 20.5558 0.499523 19.1748 0.499523C17.7948 0.499523 16.6748 1.61852 16.6748 2.99952C16.6748 4.38052 17.7948 5.49952 19.1748 5.49952Z" fill="white"/>
</svg>
