<svg width="20" height="18" viewBox="0 0 20 18" fill="none" xmlns="http://www.w3.org/2000/svg">
<path fill-rule="evenodd" clip-rule="evenodd" d="M4.13476 0H3.88584C1.73931 0 0 1.74035 0 3.88584V4.56698C0 6.71247 1.73931 8.45178 3.88584 8.45178H4.13476C6.28129 8.45178 8.0206 6.71247 8.0206 4.56698V3.88584C8.0206 1.74035 6.28129 0 4.13476 0ZM5.36267 5.04517C5.36267 5.79505 4.75443 6.40329 4.00455 6.40329C3.25571 6.40329 2.64747 5.79505 2.64747 5.04517V3.37877C2.64747 2.62993 3.25571 2.02169 4.00455 2.02169C4.75443 2.02169 5.36267 2.62993 5.36267 3.37877V5.04517Z" fill="white"/>
<path fill-rule="evenodd" clip-rule="evenodd" d="M16.1464 9.06787H15.8996C13.7718 9.06787 12.0471 10.7936 12.0471 12.9204V13.5953C12.0471 15.7231 13.7718 17.4478 15.8996 17.4478H16.1464C18.2753 17.4478 20 15.7231 20 13.5953V12.9204C20 10.7936 18.2753 9.06787 16.1464 9.06787ZM17.3639 14.0702C17.3639 14.8138 16.7609 15.4158 16.0183 15.4158C15.2746 15.4158 14.6716 14.8138 14.6716 14.0702V12.4184C14.6716 11.6747 15.2746 11.0717 16.0183 11.0717C16.7609 11.0717 17.3639 11.6747 17.3639 12.4184V14.0702Z" fill="white"/>
<path d="M5.80462 17.032H5.80566C6.43368 17.032 7.0138 16.6967 7.32833 16.152L15.4864 2.44269C16.0197 1.51888 15.3552 0.364893 14.2897 0.360727C13.6596 0.358644 13.0753 0.694008 12.7608 1.23975L4.60273 14.9501C4.06844 15.876 4.73604 17.032 5.80462 17.032Z" fill="white"/>
</svg>
