<svg width="16" height="14" viewBox="0 0 16 14" fill="none" xmlns="http://www.w3.org/2000/svg">
<path d="M12.9121 1.07227L7.01172 1.07227C6.45313 1.07227 6.03516 1.21484 5.75781 1.5C5.47656 1.78125 5.33594 2.20312 5.33594 2.76562V5.37305H6.14453V2.7832C6.14453 2.49023 6.2207 2.26758 6.37305 2.11523C6.52539 1.95898 6.75195 1.88086 7.05273 1.88086L12.8711 1.88086C13.168 1.88086 13.3926 1.95898 13.5449 2.11523C13.6973 2.26758 13.7734 2.49023 13.7734 2.7832L13.7734 11.209C13.7734 11.498 13.6973 11.7188 13.5449 11.8711C13.3926 12.0273 13.168 12.1055 12.8711 12.1055L7.05273 12.1055C6.75195 12.1055 6.52539 12.0273 6.37305 11.8711C6.2207 11.7187 6.14453 11.498 6.14453 11.209V8.61914H5.33594V11.2266C5.33594 11.7891 5.47656 12.2109 5.75781 12.4922C6.03516 12.7773 6.45312 12.9199 7.01172 12.9199L12.9121 12.9199C13.4668 12.9199 13.8848 12.7773 14.166 12.4922C14.4473 12.2109 14.5879 11.7891 14.5879 11.2266L14.5879 2.76562C14.5879 2.20312 14.4473 1.78125 14.166 1.5C13.8848 1.21484 13.4668 1.07227 12.9121 1.07227ZM9.56641 6.59766L3.77148 6.59766L2.95117 6.63281L3.39063 6.21094L4.31641 5.33203C4.39844 5.25781 4.43945 5.16602 4.43945 5.05664C4.43945 4.95117 4.40625 4.86328 4.33984 4.79297C4.26953 4.72266 4.18359 4.6875 4.08203 4.6875C3.98828 4.6875 3.90234 4.72852 3.82422 4.81055L1.97266 6.70898C1.92578 6.75977 1.89258 6.80859 1.87305 6.85547C1.85352 6.90234 1.84375 6.95117 1.84375 7.00195C1.84375 7.05273 1.85352 7.10156 1.87305 7.14844C1.89258 7.19531 1.92578 7.24219 1.97266 7.28906L3.82422 9.19336C3.90234 9.27148 3.98828 9.31055 4.08203 9.31055C4.18359 9.31055 4.26953 9.27734 4.33984 9.21094C4.40625 9.14453 4.43945 9.05859 4.43945 8.95312C4.43945 8.83984 4.39844 8.74609 4.31641 8.67187L3.39062 7.79297L2.95117 7.36523L3.77148 7.40039L9.56641 7.40039C9.67188 7.40039 9.76367 7.36133 9.8418 7.2832C9.91992 7.20508 9.95898 7.11133 9.95898 7.00195C9.95898 6.89258 9.91992 6.79687 9.8418 6.71484C9.76367 6.63672 9.67188 6.59766 9.56641 6.59766Z" fill="black"/>
</svg>
