<svg width="19" height="19" viewBox="0 0 19 19" fill="none" xmlns="http://www.w3.org/2000/svg">
<path fill-rule="evenodd" clip-rule="evenodd" d="M16.2984 12.8746H10.4054L8.61543 11.0846L10.4054 9.29456H16.2984V12.8746ZM11.3914 2.37656L12.1654 3.92556H7.52243L11.3914 2.37656ZM17.1934 7.50456H16.2984V5.71456C16.2984 4.72856 15.4954 3.92556 14.5084 3.92556H14.1664L12.6234 0.840557C12.4154 0.424557 11.9234 0.238557 11.4904 0.410557L2.70143 3.92556H1.97943C0.99243 3.92556 0.19043 4.72856 0.19043 5.71456V16.4546C0.19043 17.4406 0.99243 18.2436 1.97943 18.2436H14.5084C15.4954 18.2436 16.2984 17.4406 16.2984 16.4546V14.6646H17.1934C17.6874 14.6646 18.0884 14.2636 18.0884 13.7696V8.39956C18.0884 7.90656 17.6874 7.50456 17.1934 7.50456ZM11.8238 10.1895C12.3178 10.1895 12.7188 10.5905 12.7188 11.0845C12.7188 11.5785 12.3178 11.9795 11.8238 11.9795C11.3298 11.9795 10.9288 11.5785 10.9288 11.0845C10.9288 10.5905 11.3298 10.1895 11.8238 10.1895Z" fill="white"/>
</svg>
