<svg width="24" height="17" viewBox="0 0 24 17" fill="none" xmlns="http://www.w3.org/2000/svg">
<path d="M18.9853 1.40305L16.6353 4.13405C16.3483 4.46705 15.8283 4.46105 15.5513 4.11905L13.3323 1.39305C13.0813 1.08505 13.3013 0.623047 13.6973 0.623047H18.6273C19.0303 0.623047 19.2473 1.09705 18.9853 1.40305Z" fill="white"/>
<path d="M14.9831 7.20025L12.3971 15.4802C12.2591 15.9212 11.6351 15.9212 11.4971 15.4802L8.91005 7.20025C8.76805 6.74525 9.10805 6.28225 9.58505 6.28225H14.3091C14.7861 6.28225 15.1261 6.74525 14.9831 7.20025Z" fill="white"/>
<path d="M5.91215 4.32885L3.73715 1.72985C3.45415 1.39185 2.93515 1.39185 2.65315 1.72985L0.478154 4.32885C0.221154 4.63585 0.439154 5.10285 0.839154 5.10285H5.55115C5.95115 5.10285 6.16915 4.63585 5.91215 4.32885Z" fill="white"/>
<path d="M21.3503 1.72085L23.5333 4.32885C23.7903 4.63585 23.5723 5.10285 23.1723 5.10285H18.3843C17.9803 5.10285 17.7633 4.62985 18.0263 4.32385L20.2723 1.71285C20.5563 1.38185 21.0703 1.38585 21.3503 1.72085Z" fill="white"/>
<path d="M10.0528 5.10325H13.8408C14.2388 5.10325 14.4578 4.64225 14.2068 4.33325L12.4948 2.23025C12.2128 1.88325 11.6818 1.88325 11.3988 2.23025L9.68675 4.33325C9.43675 4.64225 9.65575 5.10325 10.0528 5.10325Z" fill="white"/>
<path d="M13.4549 16.0446L16.2979 6.94365C16.4209 6.54965 16.7859 6.28165 17.1979 6.28165H22.9969C23.4129 6.28165 23.6249 6.78165 23.3369 7.08065L14.2439 16.5126C13.8989 16.8706 13.3069 16.5196 13.4549 16.0446Z" fill="white"/>
<path d="M8.35645 4.10285L10.5615 1.39285C10.8125 1.08485 10.5935 0.623847 10.1955 0.623847H5.35645C4.95645 0.623847 4.73845 1.09085 4.99545 1.39785L7.26545 4.10985C7.55045 4.45085 8.07545 4.44685 8.35645 4.10285Z" fill="white"/>
<path d="M1.00185 6.28205H6.69585C7.10885 6.28205 7.47285 6.55005 7.59585 6.94405L10.4289 16.012C10.5769 16.488 9.98285 16.839 9.63785 16.479L0.660854 7.07905C0.374854 6.77905 0.586854 6.28205 1.00185 6.28205Z" fill="white"/>
</svg>
