<svg width="18" height="22" viewBox="0 0 18 22" fill="none" xmlns="http://www.w3.org/2000/svg">
<path fill-rule="evenodd" clip-rule="evenodd" d="M16.7218 0.515261C15.8698 -0.0987389 14.6738 0.0812611 13.9308 0.824261L11.0278 3.72826L12.0918 4.79126L10.8708 6.01126C10.6738 6.20926 10.5618 6.47726 10.5618 6.75726V11.1843C10.5618 11.3603 10.4738 11.5253 10.3268 11.6233L9.21978 12.3613L6.55278 9.69426C6.05478 9.19526 5.33978 8.97726 4.64878 9.11826C3.95678 9.25526 3.37978 9.73026 3.11178 10.3823L0.897776 18.2753C0.572776 19.0643 0.753776 19.9673 1.35578 20.5703C1.95778 21.1733 2.86278 21.3523 3.65078 21.0293L11.8308 19.1003C12.4828 18.8323 12.9568 18.2553 13.0968 17.5633C13.2348 16.8733 13.0178 16.1593 12.5188 15.6583L10.0748 13.2143L11.5348 12.2403C11.8288 12.0443 12.0048 11.7153 12.0048 11.3633V6.74526C12.0048 6.60526 12.0598 6.47126 12.1598 6.37226L12.9158 5.61726L14.0108 6.71126L16.9928 3.72826C17.8988 2.82126 17.8078 1.29726 16.7218 0.515261" fill="white"/>
</svg>
